# xmcd CD database file
#
# Track frame offsets:
#	183
#	29678
#	54213
#	83825
#	109570
#	139728
#	168958
#	223115
#
# Disc length: 3312 seconds
#
# Revision: 0
# Processed by: cddbd v1.5.1PL0 Copyright (c) Steve Scherf et al.
# Submitted via: CDex 1.51
#
DISCID=660cee08
DTITLE=The Little Cosmic Dance Orchestra - Dreamtime Visions
DYEAR=1992
DGENRE=New Age
TTITLE0=Beyarrmak
TTITLE1=Monolith
TTITLE2=Whales
TTITLE3=Matjala
TTITLE4=Yinydjapana
TTITLE5=Djapana
TTITLE6=Delta des Anduin
TTITLE7=Dreamtime Visions
EXTD=YEAR: 1992
EXTT0=
EXTT1=
EXTT2=
EXTT3=
EXTT4=
EXTT5=
EXTT6=
EXTT7=
PLAYORDER=
